HIERARCHY
ROOT Hips
{
	OFFSET -0.001795 -0.223333 0.028219
	CHANNELS 6 Xposition Yposition Zposition Zrotation Yrotation Xrotation 
	JOINT LeftUpLeg
	{
		OFFSET 0.069520 -0.091406 -0.006815
		CHANNELS 3 Zrotation Yrotation Xrotation
		JOINT LeftLeg
		{
			OFFSET 0.034277 -0.375199 -0.004496
			CHANNELS 3 Zrotation Yrotation Xrotation
			JOINT LeftFoot
			{
				OFFSET -0.013596 -0.397961 -0.043693
				CHANNELS 3 Zrotation Yrotation Xrotation
				JOINT LeftToe
				{
					OFFSET 0.026358 -0.055791 0.119288
					CHANNELS 3 Zrotation Yrotation Xrotation
					End Site
					{
						OFFSET 0.000000 0.000000 0.000000
					}
				}
			}
		}
	}
	JOINT RightUpLeg
	{
		OFFSET -0.067670 -0.090522 -0.004320
		CHANNELS 3 Zrotation Yrotation Xrotation
		JOINT RightLeg
		{
			OFFSET -0.038290 -0.382569 -0.008850
			CHANNELS 3 Zrotation Yrotation Xrotation
			JOINT RightFoot
			{
				OFFSET 0.015774 -0.398415 -0.042312
				CHANNELS 3 Zrotation Yrotation Xrotation
				JOINT RightToe
				{
					OFFSET -0.025372 -0.048144 0.123348
					CHANNELS 3 Zrotation Yrotation Xrotation
					End Site
					{
						OFFSET 0.000000 0.000000 0.000000
					}
				}
			}
		}
	}
	JOINT Spine
	{
		OFFSET -0.002533 0.108963 -0.026696
		CHANNELS 3 Zrotation Yrotation Xrotation
		JOINT Spine1
		{
			OFFSET 0.005487 0.135180 0.001092
			CHANNELS 3 Zrotation Yrotation Xrotation
			JOINT Spine2
			{
				OFFSET 0.001457 0.052922 0.025425
				CHANNELS 3 Zrotation Yrotation Xrotation
				JOINT Neck
				{
					OFFSET -0.002778 0.213870 -0.042857
					CHANNELS 3 Zrotation Yrotation Xrotation
					JOINT Head
					{
						OFFSET 0.005152 0.064970 0.051349
						CHANNELS 3 Zrotation Yrotation Xrotation
						End Site
						{
							OFFSET 0.000000 0.000000 0.000000
						}
					}
				}
				JOINT LeftShoulder
				{
					OFFSET 0.078845 0.121749 -0.034090
					CHANNELS 3 Zrotation Yrotation Xrotation
					JOINT LeftArm
					{
						OFFSET 0.090977 0.030469 -0.008868
						CHANNELS 3 Zrotation Yrotation Xrotation
						JOINT LeftForeArm
						{
							OFFSET 0.259612 -0.012772 -0.027456
							CHANNELS 3 Zrotation Yrotation Xrotation
							JOINT LeftHand
							{
								OFFSET 0.249234 0.008986 -0.001171
								CHANNELS 3 Zrotation Yrotation Xrotation
								End Site
								{
									OFFSET 0.000000 0.000000 0.000000
								}
							}
						}
					}
				}
				JOINT RightShoulder
				{
					OFFSET -0.081759 0.118833 -0.038615
					CHANNELS 3 Zrotation Yrotation Xrotation
					JOINT RightArm
					{
						OFFSET -0.096012 0.032551 -0.009143
						CHANNELS 3 Zrotation Yrotation Xrotation
						JOINT RightForeArm
						{
							OFFSET -0.253742 -0.013329 -0.021401
							CHANNELS 3 Zrotation Yrotation Xrotation
							JOINT RightHand
							{
								OFFSET -0.255298 0.007772 -0.005559
								CHANNELS 3 Zrotation Yrotation Xrotation
								End Site
								{
									OFFSET 0.000000 0.000000 0.000000
								}
							}
						}
					}
				}
			}
		}
	}
}
MOTION
Frames: 17
Frame Time: 0.050000
0.020546 0.934462 -0.102351 -3.089581 30.315005 -0.616119 9.130126 -1.398677 -16.721118 -4.875165 -0.600097 16.717697 -0.635094 5.481030 9.570885 0.000000 0.000000 0.000000 -3.004545 0.311450 -18.805542 3.711590 -3.457631 27.164581 -12.046140 -22.263899 19.441120 0.000000 0.000000 0.000000 1.659240 -1.845201 17.236458 -7.198936 2.249734 10.280172 -8.128855 11.570434 6.240469 11.636980 -5.544208 -9.869088 0.000000 0.000000 0.000000 10.548821 -42.484366 11.088743 23.418789 -31.236203 -9.471660 40.455760 -12.581816 -5.909998 0.000000 0.000000 0.000000 -18.623911 36.342779 7.497932 -31.354198 46.997517 -9.365642 -38.529511 1.952553 0.857526 0.000000 0.000000 0.000000 
0.019423 0.934166 -0.102150 -3.005380 30.373636 -0.732674 9.204648 -1.397464 -16.740663 -5.049517 -0.595884 16.974120 -0.660516 5.464964 9.619130 0.000000 0.000000 0.000000 -2.840572 0.342337 -18.832368 3.529354 -3.437344 27.452513 -12.310044 -22.689517 19.480077 0.000000 0.000000 0.000000 1.525155 -1.822645 17.238775 -7.230049 2.228473 10.612347 -8.380946 11.590861 5.958618 11.350150 -5.578299 -9.192985 0.000000 0.000000 0.000000 10.331212 -42.980875 11.202090 23.046934 -30.924085 -9.222387 40.102279 -12.690816 -5.866201 0.000000 0.000000 0.000000 -18.326242 36.555119 7.715322 -30.529854 46.963353 -9.128089 -39.604767 2.644966 0.700216 0.000000 0.000000 0.000000 
0.018336 0.934058 -0.101461 -2.913552 30.340741 -0.598209 9.343359 -1.389907 -16.696045 -5.267933 -0.533511 16.735848 -0.657642 5.490114 9.665816 0.000000 0.000000 0.000000 -2.764682 0.357399 -18.977458 3.524201 -3.429114 27.464588 -12.566421 -23.097386 19.545548 0.000000 0.000000 0.000000 1.314857 -1.768524 17.130636 -7.267771 2.252201 10.574939 -8.580624 11.569890 5.915363 11.007571 -5.546507 -8.586621 0.000000 0.000000 0.000000 9.418669 -43.418208 11.390257 23.044220 -30.583731 -9.053589 39.976250 -13.201409 -5.954093 0.000000 0.000000 0.000000 -17.973876 36.568222 7.878150 -29.769957 46.951790 -8.907824 -40.931234 4.002918 0.316532 0.000000 0.000000 0.000000 
0.017244 0.933854 -0.100357 -2.921613 30.534839 -0.745291 9.492653 -1.364138 -16.400588 -5.354100 -0.502084 16.471030 -0.757078 5.284555 9.575443 0.000000 0.000000 0.000000 -2.508631 0.403354 -18.985990 3.412213 -3.456055 27.746623 -13.019220 -23.755245 19.818223 0.000000 0.000000 0.000000 1.230630 -1.749628 17.078920 -7.055532 2.125738 10.628552 -9.068772 11.610525 5.756746 11.153771 -5.935915 -7.846662 0.000000 0.000000 0.000000 8.871386 -44.090047 11.580295 22.768777 -30.221091 -8.823447 39.929967 -13.330532 -5.967453 0.000000 0.000000 0.000000 -17.316139 36.856918 8.281510 -28.808323 46.754433 -8.590747 -42.168204 5.319931 -0.086825 0.000000 0.000000 0.000000 
0.016267 0.933758 -0.099064 -2.874628 30.659386 -0.802062 9.596595 -1.354326 -16.285189 -5.455268 -0.486800 16.443747 -0.825385 5.180971 9.582272 0.000000 0.000000 0.000000 -2.388592 0.432159 -18.724592 3.371220 -3.495801 27.947040 -12.772780 -23.696574 18.634259 0.000000 0.000000 0.000000 1.149182 -1.725193 16.994039 -7.186057 2.177793 10.716980 -9.307320 11.346254 5.586498 10.731600 -5.839674 -7.278207 0.000000 0.000000 0.000000 8.201048 -44.272731 11.701164 22.669385 -29.992174 -8.636069 40.249205 -13.491036 -6.036207 0.000000 0.000000 0.000000 -16.814431 36.915223 8.526664 -28.160991 47.025218 -8.538651 -43.536558 6.414317 -0.463335 0.000000 0.000000 0.000000 
0.015634 0.933615 -0.097765 -2.808684 30.748113 -0.839524 9.586353 -1.349967 -16.205225 -5.424303 -0.500928 16.502319 -0.864588 5.103647 9.550716 0.000000 0.000000 0.000000 -2.329577 0.442893 -18.625618 3.277051 -3.555155 28.399766 -12.427461 -23.420745 17.614370 0.000000 0.000000 0.000000 1.021466 -1.676862 16.804318 -7.187718 2.169942 10.742100 -9.595355 11.484564 5.584506 10.806696 -6.171043 -6.562609 0.000000 0.000000 0.000000 8.130435 -44.547627 11.753980 22.361508 -29.930564 -8.553556 40.890890 -13.525496 -6.204624 0.000000 0.000000 0.000000 -16.351596 36.786462 8.697458 -27.296366 47.103924 -8.274747 -44.488518 7.196058 -0.720323 0.000000 0.000000 0.000000 
0.015583 0.933619 -0.096713 -2.786410 30.826987 -0.987867 9.548762 -1.339338 -16.065243 -5.357142 -0.528525 16.639878 -0.906002 5.021406 9.517984 0.000000 0.000000 0.000000 -2.175464 0.470048 -18.627194 3.174741 -3.618229 28.895612 -12.604616 -23.767445 17.508075 0.000000 0.000000 0.000000 1.165679 -1.678978 16.660687 -7.368843 2.288340 10.517471 -9.771720 11.493201 5.838915 10.539243 -6.227969 -5.879208 0.000000 0.000000 0.000000 7.832330 -44.719649 11.812010 22.126408 -30.031207 -8.513653 41.256690 -13.756105 -6.374129 0.000000 0.000000 0.000000 -15.811776 36.607973 8.854142 -26.861015 47.443193 -8.241678 -44.908138 7.418799 -0.812786 0.000000 0.000000 0.000000 
0.015993 0.933345 -0.095877 -2.657219 30.985255 -1.084328 9.352613 -1.322539 -15.764239 -5.242759 -0.542406 16.491722 -0.961415 4.835088 9.334986 0.000000 0.000000 0.000000 -2.105689 0.473814 -18.682770 3.098431 -3.741776 29.572528 -12.912970 -24.400482 17.206482 0.000000 0.000000 0.000000 1.210479 -1.653555 16.432026 -7.596371 2.366433 10.771734 -9.775141 11.511723 5.827414 10.238645 -6.292253 -5.115558 0.000000 0.000000 0.000000 7.496618 -44.902082 11.886821 22.245587 -30.211427 -8.598023 41.337431 -13.944581 -6.428519 0.000000 0.000000 0.000000 -15.475557 36.516012 8.968790 -26.561261 47.578760 -8.194878 -44.894736 7.385271 -0.805447 0.000000 0.000000 0.000000 
0.016771 0.932816 -0.095190 -2.553113 31.143780 -1.176756 9.300025 -1.310520 -15.566099 -5.389351 -0.524441 16.484178 -0.976672 4.686345 9.121686 0.000000 0.000000 0.000000 -2.105114 0.465849 -18.646954 3.035204 -3.833014 30.049363 -13.096006 -24.821395 16.888450 0.000000 0.000000 0.000000 1.393912 -1.655908 16.244603 -7.743278 2.434933 10.748672 -9.780966 11.566659 5.889629 10.126129 -6.298913 -4.859044 0.000000 0.000000 0.000000 7.381477 -44.728840 11.855396 22.218643 -30.781639 -8.819460 41.453333 -14.099027 -6.518326 0.000000 0.000000 0.000000 -15.471690 36.502976 8.963602 -26.084671 47.646595 -8.030565 -44.651083 7.150789 -0.706762 0.000000 0.000000 0.000000 
0.017555 0.932235 -0.094528 -2.440178 31.344870 -1.316112 9.152684 -1.292689 -15.283086 -5.389831 -0.527123 16.422221 -1.010732 4.472525 8.848960 0.000000 0.000000 0.000000 -2.235062 0.432323 -18.458131 3.103959 -3.970737 30.409507 -13.143956 -25.063991 16.415026 0.000000 0.000000 0.000000 1.599536 -1.653794 16.014764 -8.009259 2.547441 10.858861 -9.681368 11.614753 5.939427 9.941293 -6.197108 -4.728585 0.000000 0.000000 0.000000 7.271169 -44.736240 11.864020 22.416780 -31.239526 -9.050335 41.129227 -14.121179 -6.444311 0.000000 0.000000 0.000000 -15.409346 36.436656 8.962866 -25.885800 47.750312 -7.984051 -43.983413 6.612653 -0.510589 0.000000 0.000000 0.000000 
0.018185 0.931718 -0.093808 -2.440090 31.546766 -1.383544 9.271774 -1.290457 -15.209080 -5.646062 -0.496285 16.451359 -1.034769 4.322092 8.662976 0.000000 0.000000 0.000000 -2.121832 0.452320 -18.282732 3.069714 -4.047441 30.672785 -13.181697 -25.411353 15.609519 0.000000 0.000000 0.000000 1.795514 -1.657048 15.813250 -8.183777 2.598908 11.050014 -9.644185 11.796937 5.808628 10.082530 -6.282654 -4.776069 0.000000 0.000000 0.000000 7.246228 -44.591523 11.830519 22.803150 -31.799791 -9.430788 40.876817 -14.341128 -6.456550 0.000000 0.000000 0.000000 -15.393790 36.173401 8.901220 -25.777343 47.763448 -7.907695 -43.574258 6.247778 -0.361003 0.000000 0.000000 0.000000 
0.018485 0.931375 -0.093068 -2.407222 31.777860 -1.383515 9.396603 -1.305328 -15.329222 -5.942435 -0.477704 16.681711 -1.090344 4.208128 8.619601 0.000000 0.000000 0.000000 -2.119695 0.446657 -18.142157 3.217647 -4.159988 30.684037 -13.434437 -25.969905 15.291289 0.000000 0.000000 0.000000 1.932697 -1.662845 15.683757 -8.366151 2.649809 11.268675 -9.621265 12.018321 5.673784 10.110784 -6.064948 -5.327537 0.000000 0.000000 0.000000 7.792322 -44.075878 11.651360 22.974635 -32.525055 -9.852511 41.166880 -14.370343 -6.581701 0.000000 0.000000 0.000000 -15.162735 35.943758 8.954292 -25.877306 47.665783 -7.895629 -43.496264 5.903416 -0.219806 0.000000 0.000000 0.000000 
0.018508 0.931491 -0.092425 -2.405007 31.910426 -1.374137 9.519077 -1.316191 -15.442290 -6.146562 -0.464716 16.859379 -1.155203 4.163835 8.717415 0.000000 0.000000 0.000000 -2.007587 0.468944 -18.046574 3.212179 -4.131839 30.471318 -13.794963 -26.496822 15.592399 0.000000 0.000000 0.000000 1.953379 -1.664606 15.654727 -8.426093 2.691650 11.087889 -9.534083 12.154285 5.855073 10.321694 -6.019080 -5.836979 0.000000 0.000000 0.000000 7.976641 -43.680816 11.539330 23.138601 -32.897636 -10.101465 41.414164 -14.436870 -6.694664 0.000000 0.000000 0.000000 -14.945356 35.649956 8.945734 -26.102760 47.613565 -7.941083 -43.646084 5.795455 -0.169619 0.000000 0.000000 0.000000 
0.018505 0.931850 -0.091901 -2.460241 32.079391 -1.434745 9.502610 -1.321656 -15.451182 -6.017130 -0.499201 16.925582 -1.262395 4.043262 8.787650 0.000000 0.000000 0.000000 -1.902034 0.488511 -17.889442 3.320255 -4.165761 30.244724 -14.157964 -27.024387 15.885886 0.000000 0.000000 0.000000 1.948574 -1.682114 15.740857 -8.559627 2.727316 11.281639 -9.384408 12.131447 5.613293 10.458821 -5.862957 -6.493484 0.000000 0.000000 0.000000 7.795823 -43.195024 11.458630 23.323056 -33.179964 -10.269437 41.786501 -14.715940 -6.869334 0.000000 0.000000 0.000000 -14.640925 35.363462 8.997143 -26.380857 47.484384 -8.027428 -44.247910 5.818508 -0.153477 0.000000 0.000000 0.000000 
0.018634 0.932099 -0.091511 -2.454683 32.194891 -1.425148 9.378852 -1.323244 -15.408132 -5.805962 -0.532196 16.853366 -1.336707 3.936724 8.794894 0.000000 0.000000 0.000000 -1.952415 0.473985 -17.875678 3.447365 -4.225308 30.160505 -14.378226 -27.269296 16.235650 0.000000 0.000000 0.000000 1.924764 -1.672971 15.686806 -8.481877 2.689762 11.177753 -9.268811 12.134618 5.823151 10.453618 -5.624638 -7.073659 0.000000 0.000000 0.000000 7.403635 -42.893499 11.424682 23.415087 -33.127461 -10.259401 42.165594 -14.856005 -7.004384 0.000000 0.000000 0.000000 -14.305871 35.099558 9.037968 -26.781094 47.519777 -8.184293 -44.831312 5.756592 -0.128839 0.000000 0.000000 0.000000 
0.018964 0.932383 -0.091269 -2.511392 32.273732 -1.477769 9.300461 -1.321680 -15.352299 -5.602799 -0.567221 16.824084 -1.391551 3.857561 8.798604 0.000000 0.000000 0.000000 -1.850354 0.495394 -17.732849 3.361955 -4.172157 30.023194 -14.406294 -27.291432 16.303282 0.000000 0.000000 0.000000 1.958957 -1.682428 15.699305 -8.571377 2.713088 11.317489 -9.144633 12.044768 5.607649 10.481655 -5.570762 -7.283246 0.000000 0.000000 0.000000 6.862643 -42.725481 11.441037 23.389960 -32.945603 -10.131634 42.363766 -15.049962 -7.085770 0.000000 0.000000 0.000000 -13.867321 34.858822 9.156178 -27.195034 47.550571 -8.384418 -45.343624 6.017306 -0.227135 0.000000 0.000000 0.000000 
0.019439 0.932530 -0.091251 -2.461384 32.259579 -1.562347 9.147182 -1.321598 -15.344848 -5.485350 -0.610169 17.062690 -1.395694 3.874793 8.834323 0.000000 0.000000 0.000000 -1.969139 0.472663 -17.608793 3.256546 -4.171752 30.250152 -13.954793 -26.662390 15.890408 0.000000 0.000000 0.000000 1.986355 -1.680582 15.665010 -8.546894 2.695668 11.387137 -9.124643 12.029256 5.547096 10.601362 -5.563655 -7.543426 0.000000 0.000000 0.000000 6.550506 -42.723106 11.467777 23.275856 -32.606624 -9.942296 42.026934 -15.121564 -7.026251 0.000000 0.000000 0.000000 -13.208517 34.895684 9.463466 -27.820236 47.733067 -8.721314 -45.486316 5.989666 -0.263029 0.000000 0.000000 0.000000 
